  0
SECTION
  2
BLOCKS
  0
ENDSEC
  0
SECTION
  2
ENTITIES
  0
LINE
  8
0
 10
0
 11
0
 20
0
 21
110
  0
LINE
  8
0
 10
0
 11
20
 20
110
 21
110
  0
LINE
  8
0
 10
20
 11
20
 20
110
 21
0
  0
LINE
  8
0
 10
20
 11
0
 20
0
 21
0
  0
LINE
  8
0
 10
4
 11
4.047
 20
100
 21
100.752
  0
LINE
  8
0
 10
4.047
 11
4.189
 20
100.752
 21
101.492
  0
LINE
  8
0
 10
4.189
 11
4.421
 20
101.492
 21
102.209
  0
LINE
  8
0
 10
4.421
 11
4.742
 20
102.209
 21
102.891
  0
LINE
  8
0
 10
4.742
 11
5.146
 20
102.891
 21
103.527
  0
LINE
  8
0
 10
5.146
 11
5.626
 20
103.527
 21
104.107
  0
LINE
  8
0
 10
5.626
 11
6.175
 20
104.107
 21
104.623
  0
LINE
  8
0
 10
6.175
 11
6.785
 20
104.623
 21
105.066
  0
LINE
  8
0
 10
6.785
 11
7.445
 20
105.066
 21
105.429
  0
LINE
  8
0
 10
7.445
 11
8.146
 20
105.429
 21
105.706
  0
LINE
  8
0
 10
8.146
 11
8.876
 20
105.706
 21
105.894
  0
LINE
  8
0
 10
8.876
 11
9.623
 20
105.894
 21
105.988
  0
LINE
  8
0
 10
9.623
 11
10.377
 20
105.988
 21
105.988
  0
LINE
  8
0
 10
10.377
 11
11.124
 20
105.988
 21
105.894
  0
LINE
  8
0
 10
11.124
 11
11.854
 20
105.894
 21
105.706
  0
LINE
  8
0
 10
11.854
 11
12.555
 20
105.706
 21
105.429
  0
LINE
  8
0
 10
12.555
 11
13.215
 20
105.429
 21
105.066
  0
LINE
  8
0
 10
13.215
 11
13.825
 20
105.066
 21
104.623
  0
LINE
  8
0
 10
13.825
 11
14.374
 20
104.623
 21
104.107
  0
LINE
  8
0
 10
14.374
 11
14.854
 20
104.107
 21
103.527
  0
LINE
  8
0
 10
14.854
 11
15.258
 20
103.527
 21
102.891
  0
LINE
  8
0
 10
15.258
 11
15.579
 20
102.891
 21
102.209
  0
LINE
  8
0
 10
15.579
 11
15.811
 20
102.209
 21
101.492
  0
LINE
  8
0
 10
15.811
 11
15.953
 20
101.492
 21
100.752
  0
LINE
  8
0
 10
15.953
 11
16
 20
100.752
 21
100
  0
LINE
  8
0
 10
16
 11
15.953
 20
100
 21
99.248
  0
LINE
  8
0
 10
15.953
 11
15.811
 20
99.248
 21
98.508
  0
LINE
  8
0
 10
15.811
 11
15.579
 20
98.508
 21
97.791
  0
LINE
  8
0
 10
15.579
 11
15.258
 20
97.791
 21
97.109
  0
LINE
  8
0
 10
15.258
 11
14.854
 20
97.109
 21
96.473
  0
LINE
  8
0
 10
14.854
 11
14.374
 20
96.473
 21
95.893
  0
LINE
  8
0
 10
14.374
 11
13.825
 20
95.893
 21
95.377
  0
LINE
  8
0
 10
13.825
 11
13.215
 20
95.377
 21
94.934
  0
LINE
  8
0
 10
13.215
 11
12.555
 20
94.934
 21
94.571
  0
LINE
  8
0
 10
12.555
 11
11.854
 20
94.571
 21
94.294
  0
LINE
  8
0
 10
11.854
 11
11.124
 20
94.294
 21
94.106
  0
LINE
  8
0
 10
11.124
 11
10.377
 20
94.106
 21
94.012
  0
LINE
  8
0
 10
10.377
 11
9.623
 20
94.012
 21
94.012
  0
LINE
  8
0
 10
9.623
 11
8.876
 20
94.012
 21
94.106
  0
LINE
  8
0
 10
8.876
 11
8.146
 20
94.106
 21
94.294
  0
LINE
  8
0
 10
8.146
 11
7.445
 20
94.294
 21
94.571
  0
LINE
  8
0
 10
7.445
 11
6.785
 20
94.571
 21
94.934
  0
LINE
  8
0
 10
6.785
 11
6.175
 20
94.934
 21
95.377
  0
LINE
  8
0
 10
6.175
 11
5.626
 20
95.377
 21
95.893
  0
LINE
  8
0
 10
5.626
 11
5.146
 20
95.893
 21
96.473
  0
LINE
  8
0
 10
5.146
 11
4.742
 20
96.473
 21
97.109
  0
LINE
  8
0
 10
4.742
 11
4.421
 20
97.109
 21
97.791
  0
LINE
  8
0
 10
4.421
 11
4.189
 20
97.791
 21
98.508
  0
LINE
  8
0
 10
4.189
 11
4.047
 20
98.508
 21
99.248
  0
LINE
  8
0
 10
4.047
 11
4
 20
99.248
 21
100
  0
LINE
  8
0
 10
12.5
 11
12.52
 20
5
 21
5.313
  0
LINE
  8
0
 10
12.52
 11
12.579
 20
5.313
 21
5.622
  0
LINE
  8
0
 10
12.579
 11
12.676
 20
5.622
 21
5.92
  0
LINE
  8
0
 10
12.676
 11
12.809
 20
5.92
 21
6.204
  0
LINE
  8
0
 10
12.809
 11
12.977
 20
6.204
 21
6.469
  0
LINE
  8
0
 10
12.977
 11
13.178
 20
6.469
 21
6.711
  0
LINE
  8
0
 10
13.178
 11
13.406
 20
6.711
 21
6.926
  0
LINE
  8
0
 10
13.406
 11
13.66
 20
6.926
 21
7.111
  0
LINE
  8
0
 10
13.66
 11
13.936
 20
7.111
 21
7.262
  0
LINE
  8
0
 10
13.936
 11
14.227
 20
7.262
 21
7.378
  0
LINE
  8
0
 10
14.227
 11
14.532
 20
7.378
 21
7.456
  0
LINE
  8
0
 10
14.532
 11
14.843
 20
7.456
 21
7.495
  0
LINE
  8
0
 10
14.843
 11
15.157
 20
7.495
 21
7.495
  0
LINE
  8
0
 10
15.157
 11
15.468
 20
7.495
 21
7.456
  0
LINE
  8
0
 10
15.468
 11
15.773
 20
7.456
 21
7.378
  0
LINE
  8
0
 10
15.773
 11
16.064
 20
7.378
 21
7.262
  0
LINE
  8
0
 10
16.064
 11
16.34
 20
7.262
 21
7.111
  0
LINE
  8
0
 10
16.34
 11
16.594
 20
7.111
 21
6.926
  0
LINE
  8
0
 10
16.594
 11
16.822
 20
6.926
 21
6.711
  0
LINE
  8
0
 10
16.822
 11
17.023
 20
6.711
 21
6.469
  0
LINE
  8
0
 10
17.023
 11
17.191
 20
6.469
 21
6.204
  0
LINE
  8
0
 10
17.191
 11
17.324
 20
6.204
 21
5.92
  0
LINE
  8
0
 10
17.324
 11
17.421
 20
5.92
 21
5.622
  0
LINE
  8
0
 10
17.421
 11
17.48
 20
5.622
 21
5.313
  0
LINE
  8
0
 10
17.48
 11
17.5
 20
5.313
 21
5
  0
LINE
  8
0
 10
17.5
 11
17.48
 20
5
 21
4.687
  0
LINE
  8
0
 10
17.48
 11
17.421
 20
4.687
 21
4.378
  0
LINE
  8
0
 10
17.421
 11
17.324
 20
4.378
 21
4.08
  0
LINE
  8
0
 10
17.324
 11
17.191
 20
4.08
 21
3.796
  0
LINE
  8
0
 10
17.191
 11
17.023
 20
3.796
 21
3.531
  0
LINE
  8
0
 10
17.023
 11
16.822
 20
3.531
 21
3.289
  0
LINE
  8
0
 10
16.822
 11
16.594
 20
3.289
 21
3.074
  0
LINE
  8
0
 10
16.594
 11
16.34
 20
3.074
 21
2.889
  0
LINE
  8
0
 10
16.34
 11
16.064
 20
2.889
 21
2.738
  0
LINE
  8
0
 10
16.064
 11
15.773
 20
2.738
 21
2.622
  0
LINE
  8
0
 10
15.773
 11
15.468
 20
2.622
 21
2.544
  0
LINE
  8
0
 10
15.468
 11
15.157
 20
2.544
 21
2.505
  0
LINE
  8
0
 10
15.157
 11
14.843
 20
2.505
 21
2.505
  0
LINE
  8
0
 10
14.843
 11
14.532
 20
2.505
 21
2.544
  0
LINE
  8
0
 10
14.532
 11
14.227
 20
2.544
 21
2.622
  0
LINE
  8
0
 10
14.227
 11
13.936
 20
2.622
 21
2.738
  0
LINE
  8
0
 10
13.936
 11
13.66
 20
2.738
 21
2.889
  0
LINE
  8
0
 10
13.66
 11
13.406
 20
2.889
 21
3.074
  0
LINE
  8
0
 10
13.406
 11
13.178
 20
3.074
 21
3.289
  0
LINE
  8
0
 10
13.178
 11
12.977
 20
3.289
 21
3.531
  0
LINE
  8
0
 10
12.977
 11
12.809
 20
3.531
 21
3.796
  0
LINE
  8
0
 10
12.809
 11
12.676
 20
3.796
 21
4.08
  0
LINE
  8
0
 10
12.676
 11
12.579
 20
4.08
 21
4.378
  0
LINE
  8
0
 10
12.579
 11
12.52
 20
4.378
 21
4.687
  0
LINE
  8
0
 10
12.52
 11
12.5
 20
4.687
 21
5
  0
LINE
  8
0
 10
12.5
 11
12.52
 20
50
 21
50.313
  0
LINE
  8
0
 10
12.52
 11
12.579
 20
50.313
 21
50.622
  0
LINE
  8
0
 10
12.579
 11
12.676
 20
50.622
 21
50.92
  0
LINE
  8
0
 10
12.676
 11
12.809
 20
50.92
 21
51.204
  0
LINE
  8
0
 10
12.809
 11
12.977
 20
51.204
 21
51.469
  0
LINE
  8
0
 10
12.977
 11
13.178
 20
51.469
 21
51.711
  0
LINE
  8
0
 10
13.178
 11
13.406
 20
51.711
 21
51.926
  0
LINE
  8
0
 10
13.406
 11
13.66
 20
51.926
 21
52.111
  0
LINE
  8
0
 10
13.66
 11
13.936
 20
52.111
 21
52.262
  0
LINE
  8
0
 10
13.936
 11
14.227
 20
52.262
 21
52.378
  0
LINE
  8
0
 10
14.227
 11
14.532
 20
52.378
 21
52.456
  0
LINE
  8
0
 10
14.532
 11
14.843
 20
52.456
 21
52.495
  0
LINE
  8
0
 10
14.843
 11
15.157
 20
52.495
 21
52.495
  0
LINE
  8
0
 10
15.157
 11
15.468
 20
52.495
 21
52.456
  0
LINE
  8
0
 10
15.468
 11
15.773
 20
52.456
 21
52.378
  0
LINE
  8
0
 10
15.773
 11
16.064
 20
52.378
 21
52.262
  0
LINE
  8
0
 10
16.064
 11
16.34
 20
52.262
 21
52.111
  0
LINE
  8
0
 10
16.34
 11
16.594
 20
52.111
 21
51.926
  0
LINE
  8
0
 10
16.594
 11
16.822
 20
51.926
 21
51.711
  0
LINE
  8
0
 10
16.822
 11
17.023
 20
51.711
 21
51.469
  0
LINE
  8
0
 10
17.023
 11
17.191
 20
51.469
 21
51.204
  0
LINE
  8
0
 10
17.191
 11
17.324
 20
51.204
 21
50.92
  0
LINE
  8
0
 10
17.324
 11
17.421
 20
50.92
 21
50.622
  0
LINE
  8
0
 10
17.421
 11
17.48
 20
50.622
 21
50.313
  0
LINE
  8
0
 10
17.48
 11
17.5
 20
50.313
 21
50
  0
LINE
  8
0
 10
17.5
 11
17.48
 20
50
 21
49.687
  0
LINE
  8
0
 10
17.48
 11
17.421
 20
49.687
 21
49.378
  0
LINE
  8
0
 10
17.421
 11
17.324
 20
49.378
 21
49.08
  0
LINE
  8
0
 10
17.324
 11
17.191
 20
49.08
 21
48.796
  0
LINE
  8
0
 10
17.191
 11
17.023
 20
48.796
 21
48.531
  0
LINE
  8
0
 10
17.023
 11
16.822
 20
48.531
 21
48.289
  0
LINE
  8
0
 10
16.822
 11
16.594
 20
48.289
 21
48.074
  0
LINE
  8
0
 10
16.594
 11
16.34
 20
48.074
 21
47.889
  0
LINE
  8
0
 10
16.34
 11
16.064
 20
47.889
 21
47.738
  0
LINE
  8
0
 10
16.064
 11
15.773
 20
47.738
 21
47.622
  0
LINE
  8
0
 10
15.773
 11
15.468
 20
47.622
 21
47.544
  0
LINE
  8
0
 10
15.468
 11
15.157
 20
47.544
 21
47.505
  0
LINE
  8
0
 10
15.157
 11
14.843
 20
47.505
 21
47.505
  0
LINE
  8
0
 10
14.843
 11
14.532
 20
47.505
 21
47.544
  0
LINE
  8
0
 10
14.532
 11
14.227
 20
47.544
 21
47.622
  0
LINE
  8
0
 10
14.227
 11
13.936
 20
47.622
 21
47.738
  0
LINE
  8
0
 10
13.936
 11
13.66
 20
47.738
 21
47.889
  0
LINE
  8
0
 10
13.66
 11
13.406
 20
47.889
 21
48.074
  0
LINE
  8
0
 10
13.406
 11
13.178
 20
48.074
 21
48.289
  0
LINE
  8
0
 10
13.178
 11
12.977
 20
48.289
 21
48.531
  0
LINE
  8
0
 10
12.977
 11
12.809
 20
48.531
 21
48.796
  0
LINE
  8
0
 10
12.809
 11
12.676
 20
48.796
 21
49.08
  0
LINE
  8
0
 10
12.676
 11
12.579
 20
49.08
 21
49.378
  0
LINE
  8
0
 10
12.579
 11
12.52
 20
49.378
 21
49.687
  0
LINE
  8
0
 10
12.52
 11
12.5
 20
49.687
 21
50
  0
ENDSEC
  0
SECTION
  2
OBJECTS
  0
DICTIONARY
  0
ENDSEC
  0
EOF
